<svg xmlns="http://www.w3.org/2000/svg" width="1280" height="720" viewBox="0 0 1280 720" font-family="'Hanken Grotesk', system-ui, sans-serif">
  <rect width="1280" height="720" fill="#F7F8FB"/>

  <!-- ============ SIDEBAR ============ -->
  <rect x="0" y="0" width="232" height="720" fill="#FFFFFF"/>
  <line x1="232" y1="0" x2="232" y2="720" stroke="#ECEEF3"/>
  <rect x="28" y="28" width="34" height="34" rx="10" fill="#7C5CFC"/>
  <text x="45" y="51" font-size="17" font-weight="800" fill="#FFFFFF" text-anchor="middle">A</text>
  <text x="74" y="52" font-size="18" font-weight="700" fill="#1A1C24" letter-spacing="-0.4">Acme</text>

  <rect x="32" y="104" width="16" height="16" rx="5" fill="#DDE1EA"/>
  <text x="62" y="118" font-size="14.5" fill="#5B6072">Panel</text>
  <rect x="32" y="152" width="16" height="16" rx="5" fill="#DDE1EA"/>
  <text x="62" y="166" font-size="14.5" fill="#5B6072">Müşteriler</text>
  <rect x="16" y="188" width="200" height="40" rx="11" fill="#F1ECFE"/>
  <rect x="32" y="200" width="16" height="16" rx="5" fill="#7C5CFC"/>
  <text x="62" y="214" font-size="14.5" font-weight="600" fill="#7C5CFC">Raporlar</text>
  <rect x="32" y="248" width="16" height="16" rx="5" fill="#DDE1EA"/>
  <text x="62" y="262" font-size="14.5" fill="#5B6072">Gelen kutusu</text>
  <rect x="32" y="296" width="16" height="16" rx="5" fill="#DDE1EA"/>
  <text x="62" y="310" font-size="14.5" fill="#5B6072">Ayarlar</text>

  <line x1="16" y1="636" x2="216" y2="636" stroke="#ECEEF3"/>
  <circle cx="46" cy="672" r="17" fill="#F1ECFE"/>
  <text x="46" y="677" font-size="12.5" font-weight="700" fill="#7C5CFC" text-anchor="middle">MD</text>
  <text x="74" y="668" font-size="13" font-weight="600" fill="#1A1C24">Mira Demir</text>
  <text x="74" y="686" font-size="11.5" fill="#9499AB">Sahip</text>

  <!-- ============ HEADER ============ -->
  <text x="276" y="66" font-size="28" font-weight="700" fill="#1A1C24" letter-spacing="-0.6">Raporlar</text>
  <text x="276" y="94" font-size="14.5" fill="#9499AB">Oluşturduğun tüm raporlar</text>
  <rect x="990" y="44" width="134" height="50" rx="13" fill="#7C5CFC"/>
  <text x="1057" y="75" font-size="15.5" font-weight="600" fill="#FFFFFF" text-anchor="middle">+  Rapor</text>

  <!-- ============ LEFT — FILTERS (date range target 0.30,0.50) ============ -->
  <rect x="276" y="138" width="288" height="516" rx="16" fill="#FFFFFF" stroke="#ECEEF3"/>
  <text x="300" y="178" font-size="15" font-weight="700" fill="#1A1C24">Filtreler</text>

  <text x="300" y="232" font-size="12" font-weight="600" fill="#9499AB" letter-spacing="0.4">DURUM</text>
  <rect x="300" y="244" width="240" height="44" rx="11" fill="#FFFFFF" stroke="#E2E5EC"/>
  <text x="320" y="271" font-size="14" fill="#5B6072">Tümü</text>

  <text x="300" y="330" font-size="12" font-weight="600" fill="#9499AB" letter-spacing="0.4">TARİH ARALIĞI</text>
  <rect x="300" y="344" width="240" height="48" rx="12" fill="#F6F3FF" stroke="#7C5CFC" stroke-width="1.5"/>
  <text x="320" y="373" font-size="14" font-weight="600" fill="#1A1C24">Son 30 gün</text>
  <path d="M512 364 l10 0 l-5 7 z" fill="#7C5CFC"/>

  <text x="300" y="430" font-size="12" font-weight="600" fill="#9499AB" letter-spacing="0.4">SAHİP</text>
  <rect x="300" y="442" width="240" height="44" rx="11" fill="#FFFFFF" stroke="#E2E5EC"/>
  <text x="320" y="469" font-size="14" fill="#5B6072">Herkes</text>

  <rect x="300" y="590" width="240" height="46" rx="12" fill="#F1ECFE"/>
  <text x="420" y="619" font-size="13.5" font-weight="600" fill="#7C5CFC" text-anchor="middle">Filtreleri temizle</text>

  <!-- ============ RIGHT — REPORT LIST (target 0.66,0.60) ============ -->
  <rect x="588" y="138" width="636" height="516" rx="16" fill="#FFFFFF" stroke="#ECEEF3"/>
  <text x="612" y="178" font-size="15" font-weight="700" fill="#1A1C24">Rapor listesi</text>
  <text x="1200" y="178" font-size="13" fill="#9499AB" text-anchor="end">24 rapor</text>
  <line x1="588" y1="200" x2="1224" y2="200" stroke="#ECEEF3"/>

  <g font-size="14">
    <rect x="612" y="222" width="34" height="34" rx="9" fill="#F1ECFE"/>
    <text x="662" y="244" font-weight="600" fill="#1A1C24">Aylık gelir özeti</text>
    <rect x="980" y="230" width="70" height="22" rx="6" fill="#E6F5EE"/>
    <text x="1015" y="245" font-size="11.5" font-weight="600" fill="#2F9E6F" text-anchor="middle">Hazır</text>
    <text x="1200" y="244" fill="#9499AB" text-anchor="end">2 saat önce</text>
    <line x1="612" y1="278" x2="1200" y2="278" stroke="#F1F2F6"/>

    <rect x="612" y="290" width="34" height="34" rx="9" fill="#F1ECFE"/>
    <text x="662" y="312" font-weight="600" fill="#1A1C24">Kohort tutma analizi</text>
    <rect x="980" y="298" width="70" height="22" rx="6" fill="#E6F5EE"/>
    <text x="1015" y="313" font-size="11.5" font-weight="600" fill="#2F9E6F" text-anchor="middle">Hazır</text>
    <text x="1200" y="312" fill="#9499AB" text-anchor="end">Dün</text>
    <line x1="612" y1="346" x2="1200" y2="346" stroke="#F1F2F6"/>

    <rect x="612" y="358" width="34" height="34" rx="9" fill="#F1ECFE"/>
    <text x="662" y="380" font-weight="600" fill="#1A1C24">Funnel dönüşümleri</text>
    <rect x="980" y="366" width="78" height="22" rx="6" fill="#FEF3E6"/>
    <text x="1019" y="381" font-size="11.5" font-weight="600" fill="#C2820B" text-anchor="middle">Taslak</text>
    <text x="1200" y="380" fill="#9499AB" text-anchor="end">3 gün önce</text>
    <line x1="612" y1="414" x2="1200" y2="414" stroke="#F1F2F6"/>

    <rect x="612" y="426" width="34" height="34" rx="9" fill="#F1ECFE"/>
    <text x="662" y="448" font-weight="600" fill="#1A1C24">Segment performansı</text>
    <rect x="980" y="434" width="70" height="22" rx="6" fill="#E6F5EE"/>
    <text x="1015" y="449" font-size="11.5" font-weight="600" fill="#2F9E6F" text-anchor="middle">Hazır</text>
    <text x="1200" y="448" fill="#9499AB" text-anchor="end">1 hafta önce</text>
    <line x1="612" y1="482" x2="1200" y2="482" stroke="#F1F2F6"/>

    <rect x="612" y="494" width="34" height="34" rx="9" fill="#F1ECFE"/>
    <text x="662" y="516" font-weight="600" fill="#1A1C24">Bölgesel gelir</text>
    <rect x="980" y="502" width="78" height="22" rx="6" fill="#FEF3E6"/>
    <text x="1019" y="517" font-size="11.5" font-weight="600" fill="#C2820B" text-anchor="middle">Taslak</text>
    <text x="1200" y="516" fill="#9499AB" text-anchor="end">2 hafta önce</text>
    <line x1="612" y1="550" x2="1200" y2="550" stroke="#F1F2F6"/>

    <rect x="612" y="562" width="34" height="34" rx="9" fill="#F1ECFE"/>
    <text x="662" y="584" font-weight="600" fill="#1A1C24">Yıllık tahmin</text>
    <rect x="980" y="570" width="70" height="22" rx="6" fill="#E6F5EE"/>
    <text x="1015" y="585" font-size="11.5" font-weight="600" fill="#2F9E6F" text-anchor="middle">Hazır</text>
    <text x="1200" y="584" fill="#9499AB" text-anchor="end">3 hafta önce</text>
  </g>
</svg>
