<svg xmlns="http://www.w3.org/2000/svg" width="1280" height="720" viewBox="0 0 1280 720" font-family="'Hanken Grotesk', system-ui, sans-serif">
  <rect width="1280" height="720" fill="#F7F8FB"/>

  <!-- ============ SIDEBAR ============ -->
  <rect x="0" y="0" width="232" height="720" fill="#FFFFFF"/>
  <line x1="232" y1="0" x2="232" y2="720" stroke="#ECEEF3"/>
  <rect x="28" y="28" width="34" height="34" rx="10" fill="#7C5CFC"/>
  <text x="45" y="51" font-size="17" font-weight="800" fill="#FFFFFF" text-anchor="middle">A</text>
  <text x="74" y="52" font-size="18" font-weight="700" fill="#1A1C24" letter-spacing="-0.4">Acme</text>

  <rect x="32" y="104" width="16" height="16" rx="5" fill="#DDE1EA"/>
  <text x="62" y="118" font-size="14.5" fill="#5B6072">Panel</text>
  <rect x="32" y="152" width="16" height="16" rx="5" fill="#DDE1EA"/>
  <text x="62" y="166" font-size="14.5" fill="#5B6072">Müşteriler</text>
  <rect x="32" y="200" width="16" height="16" rx="5" fill="#DDE1EA"/>
  <text x="62" y="214" font-size="14.5" fill="#5B6072">Raporlar</text>
  <rect x="32" y="248" width="16" height="16" rx="5" fill="#DDE1EA"/>
  <text x="62" y="262" font-size="14.5" fill="#5B6072">Gelen kutusu</text>
  <rect x="16" y="284" width="200" height="40" rx="11" fill="#F1ECFE"/>
  <rect x="32" y="296" width="16" height="16" rx="5" fill="#7C5CFC"/>
  <text x="62" y="310" font-size="14.5" font-weight="600" fill="#7C5CFC">Ayarlar</text>

  <line x1="16" y1="636" x2="216" y2="636" stroke="#ECEEF3"/>
  <circle cx="46" cy="672" r="17" fill="#F1ECFE"/>
  <text x="46" y="677" font-size="12.5" font-weight="700" fill="#7C5CFC" text-anchor="middle">MD</text>
  <text x="74" y="668" font-size="13" font-weight="600" fill="#1A1C24">Mira Demir</text>
  <text x="74" y="686" font-size="11.5" fill="#9499AB">Sahip</text>

  <!-- ============ HEADER ============ -->
  <text x="276" y="66" font-size="28" font-weight="700" fill="#1A1C24" letter-spacing="-0.6">Ayarlar</text>
  <text x="276" y="94" font-size="14.5" fill="#9499AB">Hesabını ve tercihlerini yönet</text>

  <!-- ============ NOTIFICATIONS CARD (toggle target 0.71,0.41) ============ -->
  <rect x="276" y="130" width="820" height="300" rx="16" fill="#FFFFFF" stroke="#ECEEF3"/>
  <text x="300" y="172" font-size="16" font-weight="700" fill="#1A1C24">Bildirimler</text>

  <!-- row: e-posta (off) -->
  <text x="300" y="223" font-size="14.5" font-weight="600" fill="#1A1C24">E-posta özetleri</text>
  <text x="300" y="244" font-size="12.5" fill="#9499AB">Haftalık performans özeti gönder</text>
  <rect x="866" y="210" width="62" height="32" rx="16" fill="#E2E5EC"/>
  <circle cx="884" cy="226" r="12" fill="#FFFFFF"/>
  <line x1="300" y1="266" x2="1072" y2="266" stroke="#F1F2F6"/>

  <!-- row: anlık (on) — TARGET -->
  <text x="300" y="300" font-size="14.5" font-weight="600" fill="#1A1C24">Anlık bildirimler</text>
  <text x="300" y="321" font-size="12.5" fill="#9499AB">Önemli olaylarda anında haber ver</text>
  <rect x="866" y="287" width="62" height="32" rx="16" fill="#7C5CFC"/>
  <circle cx="910" cy="303" r="12" fill="#FFFFFF"/>
  <line x1="300" y1="343" x2="1072" y2="343" stroke="#F1F2F6"/>

  <!-- row: haftalık rapor (on) -->
  <text x="300" y="377" font-size="14.5" font-weight="600" fill="#1A1C24">Haftalık rapor e-postası</text>
  <text x="300" y="398" font-size="12.5" fill="#9499AB">Her pazartesi 09:00</text>
  <rect x="866" y="364" width="62" height="32" rx="16" fill="#7C5CFC"/>
  <circle cx="910" cy="380" r="12" fill="#FFFFFF"/>

  <!-- ============ UPGRADE CARD (target 0.30,0.78 / focus 0.30,0.70) ============ -->
  <rect x="276" y="462" width="400" height="194" rx="16" fill="#F4F0FF" stroke="#7C5CFC" stroke-width="1.5"/>
  <text x="300" y="500" font-size="11.5" font-weight="700" fill="#7C5CFC" letter-spacing="0.6">PRO'YA GEÇ</text>
  <text x="300" y="534" font-size="20" font-weight="700" fill="#1A1C24" letter-spacing="-0.4">Sınırsız demo &amp; koltuk</text>
  <text x="300" y="562" font-size="13.5" fill="#5B6072">Gelişmiş analitik ve marka kaldırma.</text>
  <rect x="300" y="588" width="170" height="46" rx="12" fill="#7C5CFC"/>
  <text x="385" y="617" font-size="14.5" font-weight="600" fill="#FFFFFF" text-anchor="middle">Planı yükselt</text>

  <!-- ============ TEAM CARD ============ -->
  <rect x="700" y="462" width="396" height="194" rx="16" fill="#FFFFFF" stroke="#ECEEF3"/>
  <text x="724" y="500" font-size="16" font-weight="700" fill="#1A1C24">Ekip</text>
  <text x="724" y="524" font-size="13.5" fill="#9499AB">6 üye · 4 boş koltuk</text>
  <circle cx="740" cy="566" r="18" fill="#F1ECFE"/><text x="740" y="571" font-size="12" font-weight="700" fill="#7C5CFC" text-anchor="middle">MD</text>
  <circle cx="776" cy="566" r="18" fill="#E6F5EE"/><text x="776" y="571" font-size="12" font-weight="700" fill="#2F9E6F" text-anchor="middle">AK</text>
  <circle cx="812" cy="566" r="18" fill="#FEF3E6"/><text x="812" y="571" font-size="12" font-weight="700" fill="#C2820B" text-anchor="middle">EŞ</text>
  <circle cx="848" cy="566" r="18" fill="#FBEBE7"/><text x="848" y="571" font-size="12" font-weight="700" fill="#E0654E" text-anchor="middle">CY</text>
  <circle cx="884" cy="566" r="18" fill="#EEF1F6"/><text x="884" y="571" font-size="12" font-weight="700" fill="#5B6072" text-anchor="middle">+2</text>
  <rect x="724" y="604" width="150" height="44" rx="11" fill="#FFFFFF" stroke="#E2E5EC"/>
  <text x="799" y="632" font-size="13.5" font-weight="600" fill="#5B6072" text-anchor="middle">Üye davet et</text>
</svg>
