<svg xmlns="http://www.w3.org/2000/svg" width="1280" height="720" viewBox="0 0 1280 720" font-family="'Hanken Grotesk', system-ui, sans-serif">
  <rect width="1280" height="720" fill="#F7F8FB"/>

  <!-- ============ SIDEBAR ============ -->
  <rect x="0" y="0" width="232" height="720" fill="#FFFFFF"/>
  <line x1="232" y1="0" x2="232" y2="720" stroke="#ECEEF3"/>
  <rect x="28" y="28" width="34" height="34" rx="10" fill="#7C5CFC"/>
  <text x="45" y="51" font-size="17" font-weight="800" fill="#FFFFFF" text-anchor="middle">A</text>
  <text x="74" y="52" font-size="18" font-weight="700" fill="#1A1C24" letter-spacing="-0.4">Acme</text>

  <!-- nav -->
  <rect x="16" y="92" width="200" height="40" rx="11" fill="#F1ECFE"/>
  <rect x="32" y="104" width="16" height="16" rx="5" fill="#7C5CFC"/>
  <text x="62" y="118" font-size="14.5" font-weight="600" fill="#7C5CFC">Panel</text>
  <rect x="32" y="152" width="16" height="16" rx="5" fill="#DDE1EA"/>
  <text x="62" y="166" font-size="14.5" fill="#5B6072">Müşteriler</text>
  <rect x="32" y="200" width="16" height="16" rx="5" fill="#DDE1EA"/>
  <text x="62" y="214" font-size="14.5" fill="#5B6072">Raporlar</text>
  <rect x="32" y="248" width="16" height="16" rx="5" fill="#DDE1EA"/>
  <text x="62" y="262" font-size="14.5" fill="#5B6072">Gelen kutusu</text>
  <rect x="32" y="296" width="16" height="16" rx="5" fill="#DDE1EA"/>
  <text x="62" y="310" font-size="14.5" fill="#5B6072">Ayarlar</text>

  <!-- user -->
  <line x1="16" y1="636" x2="216" y2="636" stroke="#ECEEF3"/>
  <circle cx="46" cy="672" r="17" fill="#F1ECFE"/>
  <text x="46" y="677" font-size="12.5" font-weight="700" fill="#7C5CFC" text-anchor="middle">MD</text>
  <text x="74" y="668" font-size="13" font-weight="600" fill="#1A1C24">Mira Demir</text>
  <text x="74" y="686" font-size="11.5" fill="#9499AB">Sahip</text>

  <!-- ============ HEADER ============ -->
  <text x="276" y="66" font-size="28" font-weight="700" fill="#1A1C24" letter-spacing="-0.6">Panel</text>
  <text x="276" y="94" font-size="14.5" fill="#9499AB">Bugünkü performans · 1–7 Haziran</text>

  <!-- search -->
  <rect x="700" y="44" width="206" height="50" rx="13" fill="#FFFFFF" stroke="#E2E5EC"/>
  <circle cx="726" cy="69" r="6.5" fill="none" stroke="#9499AB" stroke-width="2"/>
  <line x1="731" y1="74" x2="736" y2="79" stroke="#9499AB" stroke-width="2" stroke-linecap="round"/>
  <text x="748" y="74" font-size="14" fill="#9499AB">Ara…</text>

  <!-- primary CTA (hotspot ~0.80, 0.22) -->
  <rect x="924" y="44" width="200" height="50" rx="13" fill="#7C5CFC"/>
  <text x="1024" y="75" font-size="15.5" font-weight="600" fill="#FFFFFF" text-anchor="middle">+  Yeni rapor</text>

  <!-- ============ KPI CARDS (y 214–332) ============ -->
  <!-- card 0 — Gelir (focus 0.34,0.40 lands here) -->
  <rect x="276" y="214" width="225" height="118" rx="16" fill="#FFFFFF" stroke="#ECEEF3"/>
  <text x="300" y="250" font-size="13.5" font-weight="600" fill="#5B6072">Aylık gelir</text>
  <text x="300" y="290" font-size="30" font-weight="700" fill="#1A1C24" letter-spacing="-0.6">₺104,6B</text>
  <rect x="300" y="302" width="66" height="22" rx="6" fill="#E6F5EE"/>
  <text x="333" y="317" font-size="12" font-weight="600" fill="#2F9E6F" text-anchor="middle">▲ 12,4%</text>

  <!-- card 1 — Aktif kullanıcı -->
  <rect x="517" y="214" width="225" height="118" rx="16" fill="#FFFFFF" stroke="#ECEEF3"/>
  <text x="541" y="250" font-size="13.5" font-weight="600" fill="#5B6072">Aktif hesap</text>
  <text x="541" y="290" font-size="30" font-weight="700" fill="#1A1C24" letter-spacing="-0.6">1.284</text>
  <rect x="541" y="302" width="58" height="22" rx="6" fill="#E6F5EE"/>
  <text x="570" y="317" font-size="12" font-weight="600" fill="#2F9E6F" text-anchor="middle">▲ 3,1%</text>

  <!-- card 2 — Net tutma -->
  <rect x="758" y="214" width="225" height="118" rx="16" fill="#FFFFFF" stroke="#ECEEF3"/>
  <text x="782" y="250" font-size="13.5" font-weight="600" fill="#5B6072">Net tutma</text>
  <text x="782" y="290" font-size="30" font-weight="700" fill="#1A1C24" letter-spacing="-0.6">%118</text>
  <rect x="782" y="302" width="58" height="22" rx="6" fill="#E6F5EE"/>
  <text x="811" y="317" font-size="12" font-weight="600" fill="#2F9E6F" text-anchor="middle">▲ 0,8%</text>

  <!-- card 3 — Kayıp -->
  <rect x="999" y="214" width="225" height="118" rx="16" fill="#FFFFFF" stroke="#ECEEF3"/>
  <text x="1023" y="250" font-size="13.5" font-weight="600" fill="#5B6072">Kayıp oranı</text>
  <text x="1023" y="290" font-size="30" font-weight="700" fill="#1A1C24" letter-spacing="-0.6">%1,9</text>
  <rect x="1023" y="302" width="58" height="22" rx="6" fill="#FBEBE7"/>
  <text x="1052" y="317" font-size="12" font-weight="600" fill="#E0654E" text-anchor="middle">▼ 0,3%</text>

  <!-- ============ REVENUE CHART (y 356–676, focus 0.5,0.72) ============ -->
  <rect x="276" y="356" width="948" height="320" rx="16" fill="#FFFFFF" stroke="#ECEEF3"/>
  <text x="300" y="398" font-size="16" font-weight="700" fill="#1A1C24">Haftalık gelir</text>
  <rect x="1038" y="378" width="48" height="28" rx="8" fill="#FFFFFF"/>
  <text x="1062" y="397" font-size="12.5" font-weight="600" fill="#9499AB" text-anchor="middle">7g</text>
  <rect x="1090" y="378" width="48" height="28" rx="8" fill="#F1ECFE"/>
  <text x="1114" y="397" font-size="12.5" font-weight="600" fill="#7C5CFC" text-anchor="middle">30g</text>
  <rect x="1142" y="378" width="48" height="28" rx="8" fill="#FFFFFF"/>
  <text x="1166" y="397" font-size="12.5" font-weight="600" fill="#9499AB" text-anchor="middle">90g</text>

  <!-- gridlines -->
  <line x1="300" y1="480" x2="1200" y2="480" stroke="#F1F2F6"/>
  <line x1="300" y1="530" x2="1200" y2="530" stroke="#F1F2F6"/>
  <line x1="300" y1="580" x2="1200" y2="580" stroke="#F1F2F6"/>
  <!-- area + line -->
  <polygon points="300,630 300,570 382,546 464,558 545,526 627,538 709,506 791,520 873,490 955,502 1036,474 1118,486 1200,454 1200,630"
           fill="#7C5CFC" opacity="0.10"/>
  <polyline points="300,570 382,546 464,558 545,526 627,538 709,506 791,520 873,490 955,502 1036,474 1118,486 1200,454"
            fill="none" stroke="#7C5CFC" stroke-width="2.6" stroke-linecap="round" stroke-linejoin="round"/>
  <circle cx="1200" cy="454" r="5" fill="#7C5CFC" stroke="#FFFFFF" stroke-width="2.5"/>
</svg>
